<?xml version="1.0"?>
<svg width="1124" height="1124" xmlns="http://www.w3.org/2000/svg" xmlns:svg="http://www.w3.org/2000/svg" enable-background="new 0 0 1124 1124" version="1.1" xml:space="preserve">
 <g class="layer">
  <title>Layer 1</title>
  <g id="_x31__4_"/>
  <g id="svg_61">
   <ellipse cx="564.82" cy="305.31" fill="#E6ECFF" id="svg_62" rx="253.78" ry="233.4"/>
   <ellipse cx="564.82" cy="631.56" fill="#C7D1EA" id="svg_63" rx="159.47" ry="13.01"/>
   <path d="m760.17,362.08c-8.21,23.07 -20.05,44.27 -37.52,61.7c-17.96,18.62 -44.4,29.95 -70.35,26.53c-16.71,-2.17 -13.45,-27.32 3.09,-25.09c3.05,0.56 6.17,0.68 9.07,0.67c31.73,-0.16 55.34,-27.74 69.82,-55.56c2.01,-3.73 3.8,-7.58 5.38,-11.38c0.41,-0.74 1.11,-2.62 1.46,-3.56c4.73,-12.23 23.24,-5.99 19.05,6.69z" fill="#721272" id="svg_64"/>
   <path d="m734.46,370.27c-9.95,44.2 -50.24,63.36 -50.24,63.36l-19.39,-7.85c31.55,-0.11 55.16,-27.7 69.63,-55.51z" fill="#921E96" id="svg_65"/>
   <path d="m684.44,449.41c-10.47,3.08 -21.54,4.05 -32.26,2.61c-5.37,-0.71 -9.51,-3.66 -11.48,-8.3c-2,-4.83 -1.28,-10.88 1.83,-15.13c2.98,-4 7.81,-5.84 13.17,-5.12l0,0c47.07,7.21 75.06,-48.14 82.48,-65.33l0.13,-0.26c0.35,-0.94 0.98,-2.36 1.18,-3.06c2.67,-7.24 9.56,-9.07 14.88,-7.08c5.51,1.93 9.61,7.59 7.39,14.91c-8.91,24.93 -21.62,45.97 -37.93,62.45c-11.03,11.79 -24.96,20.06 -39.41,24.31zm-34.02,-22.1c-2.1,0.62 -3.64,1.71 -4.97,3.55c-2.38,3.2 -3.11,7.8 -1.44,11.48c1.44,3.53 4.55,5.75 8.6,6.23c24.02,3.14 50.42,-6.91 68.88,-25.89c15.79,-16.11 28.23,-36.66 37.06,-61.14c1.77,-5.31 -1.4,-9.17 -5.05,-10.39c-3.9,-1.36 -8.51,-0.21 -10.54,4.97c-0.4,0.74 -0.96,2.36 -1.31,3.3l-0.13,0.26c-6.32,14.57 -26.88,55.65 -61.31,65.77c-7.61,2.24 -15.85,3 -24.7,1.63c-1.94,-0.27 -3.57,-0.19 -5.09,0.24z" fill="#520556" id="svg_66"/>
   <g id="svg_67" transform="matrix(1.05995 0.169948 -0.168816 1.06705 31.2845 -127.387)">
    <path d="m732.65,376.36l0,0c3.34,0.14 6.11,-2.47 6.26,-5.82c0,0 9.76,-222.4 5.49,-222.66c-4.64,-0.24 -17.38,222 -17.38,222c-0.33,3.36 2.28,6.34 5.63,6.47z" fill="#EA2A21" id="svg_68"/>
    <path d="m732.9,378.06c-0.11,0 -0.21,-0.01 -0.33,-0.01c-2.06,-0.09 -4.02,-1.04 -5.39,-2.62c-1.36,-1.58 -2.03,-3.65 -1.84,-5.72c0.03,-0.48 3.22,-56.13 6.95,-111.04c2.18,-32.25 4.12,-57.94 5.76,-76.35c3.21,-36.3 4.29,-36.24 6.43,-36.13c2.13,0.14 3.1,0.19 2.55,36.62c-0.28,18.49 -0.98,44.25 -2.09,76.56c-1.89,55.01 -4.33,110.69 -4.35,111.25c-0.18,4.16 -3.6,7.44 -7.7,7.44zm10.88,-219.01c-4.06,32.97 -10.89,137.98 -15.08,210.93c-0.11,1.22 0.26,2.35 1.02,3.24c0.78,0.89 1.84,1.41 3,1.45c2.38,0.15 4.4,-1.78 4.51,-4.19c3.2,-73.03 7.07,-178.17 6.55,-211.42z" fill="#B7130B" id="svg_69"/>
   </g>
   <path d="m744.29,370.72c0,0 2.67,-5.79 9.08,-7.88c6.6,-2.16 3.44,-9.55 -1.85,-9.26c-5.46,0.37 -12.7,7.49 -12.7,7.49l5.46,9.65z" fill="#721272" id="svg_70"/>
   <path d="m744.51,370.99c-1.01,-0.46 -1.37,-1.74 -0.75,-2.67c1.42,-2.1 4.34,-5.46 9.16,-7.02c1.91,-0.56 2.63,-1.61 2.44,-3.01c-0.19,-1.4 -1.65,-2.85 -3.67,-2.68c-3.83,0.29 -9.83,5.46 -11.72,7.48c-0.59,0.8 -1.31,0.95 -1.92,0.29c-0.8,-0.61 -0.75,-2.25 -0.1,-2.86c0.78,-0.85 7.72,-7.93 13.55,-8.4c3.83,-0.29 6.93,2.55 7.38,5.54c0.47,2.36 -0.6,5.8 -4.79,7.03c-3.9,1.29 -6.29,4.03 -7.39,5.67c-0.48,0.73 -1.42,0.97 -2.21,0.62l0,0z" fill="#520556" id="svg_71"/>
   <path d="m652.93,603.94c-0.06,-0.06 -0.13,-0.1 -0.21,-0.12c0,-0.02 0,-0.05 0.01,-0.07c1.58,-15.41 5.74,-64.86 -4.76,-105.89c-0.99,-4.19 -1.98,-8.2 -3.36,-12c-2.18,-6.81 -9.31,-10.21 -15.85,-8.01c-6.74,2.19 -10.11,9.41 -7.92,16.01c14.86,44.44 6.07,115.29 5.87,116.29c0,0 0.02,0 0.05,-0.01c-1.1,12.07 37.38,23.32 48.15,13.23c0.8,-0.8 1.59,-1.8 1.99,-3.01c1.58,-7.01 -11.09,-14.01 -23.97,-16.41z" fill="#721272" id="svg_72"/>
   <path d="m676.9,620.35c-4.76,-7.41 -17.44,-10 -24.96,-10.81c-3.57,-0.4 -6.14,-0.4 -6.14,-0.4c0.19,-2.21 0.39,-4.2 0.59,-6.2c3.57,-41.84 -4.56,-77.47 -4.56,-77.47s2.77,-13.21 6.34,-27.82c10.3,41.43 6.14,90.68 4.56,106.28c13.07,2.4 25.75,9.41 24.17,16.41z" fill="#921E96" id="svg_73"/>
   <path d="m560.41,487.25c-6.14,-3.01 -13.66,-0.21 -16.64,6.01c-7.72,16.01 -14.25,32.82 -19.61,48.43c-11.69,33.82 -18.03,62.25 -19.02,67.05c-13.28,2.4 -26.35,9.41 -24.96,16.62c0.4,1.19 0.99,2.21 1.99,3c10.68,10.02 48.63,-0.97 48.36,-12.93l0.02,0.06c1.78,-8.01 13.61,-64.59 35.8,-111.23c2.98,-6.4 0.4,-14.01 -5.95,-17.01z" fill="#721272" id="svg_74"/>
   <path d="m532.48,550.29c0,0 -9.9,21.63 -20.01,57.64c-0.59,2.01 -1.19,4.2 -1.78,6.41c0,0 -2.18,0.21 -5.55,0.8c-7.52,1.4 -20.4,5.01 -22.97,13.21c-1,-0.8 -1.59,-1.8 -1.99,-3c-1.39,-7.21 11.69,-14.22 24.96,-16.62c0,0 0,0 0.19,0c1,-4.8 7.33,-33.23 19.02,-67.05l8.13,8.6z" fill="#921E96" id="svg_75"/>
   <path d="m659.25,629.68c-7.08,0 -14.78,-1.6 -20.97,-4.33c-8.61,-3.79 -13.37,-9.19 -13.37,-15.21c-0.01,-3.33 0.36,-8.31 0.84,-14.61c1.76,-23.14 5.05,-66.19 -6.62,-101.09c-1.24,-3.75 -0.96,-7.72 0.77,-11.2c1.71,-3.41 4.65,-5.95 8.31,-7.14c3.68,-1.24 7.61,-0.96 11.05,0.79c3.39,1.73 5.9,4.7 7.08,8.4c1.4,3.85 2.41,7.94 3.4,12.15c9.88,38.6 6.9,85.22 4.94,104.99c8.79,1.88 18.86,6.18 22.63,11.99c1.37,2.11 1.82,4.24 1.35,6.34c-0.01,0.06 -0.04,0.12 -0.05,0.17c-0.42,1.29 -1.22,2.51 -2.42,3.72c-3.74,3.51 -10.05,5.03 -16.94,5.03zm-26.43,-150.67c-1.17,0 -2.34,0.18 -3.49,0.57c-2.74,0.89 -4.93,2.78 -6.2,5.32c-1.3,2.6 -1.51,5.57 -0.58,8.38c11.9,35.6 8.59,79.14 6.8,102.53c-0.47,6.23 -0.84,11.14 -0.83,14.33c0,4.41 4.09,8.72 11.2,11.86c12.11,5.32 28.29,5.34 33.96,0.02c0.72,-0.73 1.22,-1.45 1.47,-2.16c0.22,-1.08 -0.06,-2.21 -0.86,-3.44c-2.91,-4.45 -11.83,-8.85 -21.69,-10.7c-0.25,-0.04 -0.49,-0.15 -0.7,-0.28c-0.65,-0.34 -1.05,-1.05 -0.98,-1.79c1.92,-18.74 5.29,-66.27 -4.7,-105.35c-0.96,-4.12 -1.95,-8.1 -3.32,-11.83c-0.9,-2.81 -2.76,-5.04 -5.28,-6.32c-1.51,-0.77 -3.15,-1.16 -4.81,-1.16zm44.09,141.35l0.01,0l-0.01,0zm-24.81,-14.82c0.01,0 0.01,0 0.01,0c0,0 0,0 -0.01,0zm-0.46,-0.32c0,0 0,0 0,0s0,0 0,0z" fill="#520556" id="svg_76"/>
   <path d="m495.86,634.1c-6.15,0 -11.58,-1.3 -14.88,-4.35c-0.4,-0.34 -0.77,-0.72 -1.1,-1.12c-1.42,-1.79 -1.93,-4.26 -1.3,-6.46c2.06,-7.31 14.19,-12.81 25.05,-15c1.3,-5.95 7.49,-33.28 18.82,-66.08c6.14,-17.9 12.76,-34.26 19.7,-48.64c1.64,-3.44 4.53,-6.07 8.14,-7.37c3.63,-1.33 7.5,-1.15 10.9,0.51c7.15,3.4 10.2,12.11 6.8,19.45c-13.8,28.99 -26.02,66.83 -35.36,109.43l-0.3,1.35c-0.16,4.69 -4.69,9.3 -12.82,12.99c-7.11,3.24 -15.94,5.29 -23.66,5.29zm59.31,-146.24c-1.22,0 -2.45,0.22 -3.64,0.66c-2.71,0.99 -4.88,2.95 -6.13,5.53c-6.87,14.26 -13.45,30.49 -19.52,48.24c-12.7,36.76 -18.9,66.53 -18.96,66.83c-0.16,0.73 -0.72,1.29 -1.45,1.43c-11.73,2.12 -22.01,7.68 -23.42,12.64c-0.3,1.06 -0.05,2.28 0.64,3.16c0.18,0.22 0.37,0.41 0.6,0.6c0.04,0.04 0.07,0.06 0.11,0.09c6.02,5.64 23.08,3.72 34.62,-1.54c6.78,-3.08 10.77,-6.82 10.7,-10c0,-0.28 0.06,-0.55 0.16,-0.79l0.23,-1.01c9.39,-42.86 21.72,-80.98 35.62,-110.21c1.23,-2.66 1.4,-5.64 0.45,-8.38c-0.95,-2.75 -2.92,-4.95 -5.52,-6.18c-0.01,0 -0.01,-0.01 -0.02,-0.01c-1.4,-0.68 -2.92,-1.04 -4.46,-1.04z" fill="#520556" id="svg_77"/>
   <path d="m611.33,447.42c-105.98,19.21 -182.45,64.65 -182.45,64.44c19.42,-166.52 -37.24,-320.24 -37.24,-320.24c102.22,-46.45 234.95,-52.44 234.95,-52.05c11.89,196.77 -14.86,307.85 -15.25,307.85z" fill="#7F167F" id="svg_78"/>
   <path d="m428.89,513.67c-0.4,0 -0.6,-0.19 -0.8,-0.4c-0.59,-0.4 -0.46,-2.57 -0.46,-3.17c19.02,-164.12 -36.99,-316.28 -37.38,-317.88c-0.4,-0.8 0,-1.8 0.99,-2.21c100.64,-45.84 234.36,-53.25 236.54,-51.84c0.4,0.4 0.78,0.8 0.78,1.4c6.15,102.08 1.78,180.35 -3.16,227.98c-2.77,27.43 -5.95,47.64 -7.92,59.85c-3.77,21.62 -4.56,21.62 -5.55,21.82l0,0c-87.18,15.8 -155.12,49.64 -180.27,63.25c-1.59,0.79 -2.18,1.19 -2.77,1.19zm-34.87,-321.25c5.75,16.62 54.28,161.33 37.05,316.25c26.16,-14.21 93.11,-47.03 178.88,-62.85c2.58,-10.81 25.95,-117.29 15.06,-304.63c-14.66,0.79 -135.51,8.2 -230.99,51.24zm217.32,255.01l0,0l0,0zm0,0l0,0l0,0zm-0.19,-1.8l0,0l0,0z" fill="#520556" id="svg_79"/>
   <path d="m614.9,151.38c0,0 35.26,23.42 62.39,48.45l-202.45,27.62c0,0 -54.48,16.01 -76.47,-29.23c-0.21,0.21 105.58,-38.03 216.52,-46.84z" fill="#E6ECFF" id="svg_80"/>
   <path d="m453.05,232.05c-18.23,0 -43.2,-5.6 -56.46,-32.82c-0.19,-0.4 -0.19,-1 0,-1.4c0.19,-0.4 0.59,-0.8 0.99,-1c0.99,-0.4 107.17,-38.43 217.11,-47.04c0.4,0 0.8,0 1.19,0.21c0.4,0.19 35.66,23.82 62.6,48.64c0.6,0.39 0.6,1.19 0.4,1.79c-0.19,0.61 -0.8,1.21 -1.39,1.21l-202.46,27.62c-1.18,0.4 -10.11,2.8 -21.98,2.8zm-52.3,-32.63c21.59,41.04 73.1,26.62 73.5,26.43l0.19,0l198.7,-27.02c-24.56,-22.22 -54.68,-42.63 -58.84,-45.44c-101.03,8.01 -198.9,40.83 -213.55,46.03z" fill="#8196C9" id="svg_81"/>
   <path d="m415.21,214.64c-0.8,0 -1.39,-0.4 -1.58,-1.21c-0.4,-1 0.19,-2 0.99,-2.21c1.18,-0.4 117.47,-45.03 219.1,-48.24l0,0c0.99,0 1.77,0.8 1.77,1.8s-0.78,1.8 -1.77,1.8c-101.03,3 -216.92,47.64 -218.11,48.04c0,0 -0.21,0 -0.4,0z" fill="#8196C9" id="svg_82"/>
   <path d="m482.56,207.43c0,0 -8.32,-27.01 -27.53,-46.03c0,0 15.45,1 29.71,11.4c0,0 -1.78,-15.21 -5.95,-23.81c0,0 22.39,7.4 40.81,46.43c-0.19,0 -18.22,5.2 -37.05,12z" fill="#4BBF4B" id="svg_83"/>
   <path d="m482.56,209.23c-0.78,0 -1.39,-0.4 -1.58,-1.19c0,-0.21 -8.51,-26.83 -27.14,-45.24c-0.59,-0.6 -0.59,-1.4 -0.39,-2c0.39,-0.61 0.99,-1.01 1.77,-1.01c0.6,0 13.87,1.01 27.34,9.42c-0.78,-5.01 -2.38,-13.61 -5.15,-19.42c-0.4,-0.6 -0.19,-1.4 0.21,-2c0.39,-0.6 1.18,-0.8 1.77,-0.6c0.99,0.39 23.38,8.01 41.81,47.43c0.39,0.8 0,2 -0.8,2.4c-0.8,0.4 -1.98,0 -2.38,-0.8c-13.28,-28.22 -28.72,-39.62 -35.86,-43.63c2.98,8.6 4.37,19.62 4.37,20.02c0,0.6 -0.21,1.4 -0.8,1.8c-0.59,0.39 -1.39,0.39 -1.98,0c-8.91,-6.41 -18.23,-9.21 -23.78,-10.42c16.64,18.62 23.97,42.04 24.37,43.04c0.19,1 -0.19,2.01 -1.19,2.21c-0.39,0 -0.59,0 -0.59,0z" fill="#116D11" id="svg_84"/>
   <path d="m555.07,376.76l-27.14,86.86l-16.44,52.44l-13.07,41.44l0,0.19c-19.81,-2.8 -63.39,-19.62 -69.34,-45.63c0,0 -13.28,-129.7 -37.24,-320.25c0.19,1 3.96,6.8 11.88,13.21c2.38,2 5.15,4.01 8.32,6.01l0,0c13.28,8.41 33.68,16.41 62.8,16.61l13.07,24.22l67.16,124.9z" fill="#7F167F" id="svg_85"/>
   <path d="m440.97,225.04c-0.6,0 -1.39,-0.4 -1.59,-1c-0.4,-1 0,-2 0.99,-2.4c1.19,-0.4 112.73,-46.84 211.18,-45.24c0.99,0 1.78,0.8 1.78,1.8s-0.8,1.8 -1.78,1.8l0,0c-1.58,0 -3.36,0 -4.96,0c-96.47,0 -203.85,44.44 -204.84,45.03c-0.19,0 -0.4,0 -0.78,0z" fill="#8196C9" id="svg_86"/>
   <path d="m498.42,557.3l0,0c-19.81,-2.6 -63.39,-19.41 -69.34,-45.44c0,0 -13.28,-129.7 -37.24,-320.25c0.19,1.01 3.96,6.81 11.88,13.22c0,0 20.4,245.99 93.7,336.67l1,15.8z" fill="#92268F" id="svg_87"/>
   <path d="m527.93,463.63l-16.44,52.44l-15.45,4.01c0,0 -14.27,-106.88 -31.9,-194.16c-17.44,-86.06 -51.12,-113.89 -52.11,-114.89c13.28,8.41 33.68,16.41 62.8,16.62l13.07,24.21l40.01,211.76z" fill="#921E96" id="svg_88"/>
   <path d="m499.27,558.71l-0.86,0.6c-21.01,-3.01 -64.99,-20.62 -70.92,-47.24l0,0c-0.21,-1.4 -13.47,-132.31 -37.25,-320.25l0,0c-0.19,-1 0.6,-1.8 1.59,-2c0.99,-0.21 1.77,0.4 1.98,1.4c0.59,1 20.8,34.02 81.22,34.63c0.59,0 1.19,0.4 1.58,1l80.43,149.32c0.19,0.39 0.19,1 0.19,1.4l-56.85,180.74c-0.59,0.39 -0.53,0.4 -1.12,0.4zm-68.62,-47.24c5.35,23.21 44.58,40.43 66.37,44.03l56.06,-178.55l-79.45,-147.71c-45.75,-0.8 -70.12,-20.42 -79.24,-31.02c11.89,95.46 21.2,174.53 26.75,224.57c3.36,29.23 5.74,51.64 7.13,65.45c1.59,15.61 2.18,21.21 2.38,23.22l0,0zm-37.24,-320.25l0,0l0,0l0,0z" fill="#520556" id="svg_89"/>
   <path d="m710.97,521.08c-109.94,12.42 -212.76,36.63 -212.76,36.22c-9.31,-148.52 -23.58,-329.86 -23.58,-329.86c105.4,-33.63 214.14,-36.43 214.35,-36.03c16.44,99.47 22.38,329.66 21.98,329.66z" fill="#92268F" id="svg_90"/>
   <path d="m498.42,244.45c0,0 7.52,231.19 0,313.05c-9.31,-148.52 -23.58,-329.87 -23.58,-329.87c105.38,-33.62 214.14,-36.42 214.34,-36.02c-0.19,-0.01 -134.11,25.21 -190.76,52.83z" fill="#A336A3" id="svg_91"/>
   <path d="m710.97,521.08c-109.94,12.42 -212.76,36.63 -212.76,36.22c71.11,-28.41 190.77,-58.44 190.77,-58.44c8.71,-125.5 0,-307.45 0,-307.45c16.44,99.47 22.38,329.66 21.98,329.66z" fill="#7F167F" id="svg_92"/>
   <path d="m498.42,559.31c-0.6,0 -1,-0.4 -1.19,-0.61c-0.4,-0.39 -0.59,-0.79 -0.59,-1.19c-9.31,-146.71 -23.38,-328.06 -23.58,-329.87c0,-0.79 0.4,-1.6 1.18,-1.79c54.68,-17.42 109.95,-26.43 146.6,-30.83c36.65,-4.41 67.75,-5.81 69.13,-5.01c0.4,0.21 0.8,0.8 0.8,1.21c8.51,51.64 14.06,138.31 17.23,201.96c1.78,37.24 2.97,69.45 3.76,90.07c1.19,38.04 0.98,38.25 0.72,38.87c-0.21,0.4 -0.81,0.72 -1.31,0.77c-62.21,7.01 -129.89,18.62 -204.57,34.82c-3.73,0.9 -7.4,1.61 -8.19,1.61zm-21.79,-330.47c1.39,17.22 14.46,186.95 23.37,326.46c1.19,-0.19 -1.78,0.4 0,0c74.09,-16.01 147.39,-28.82 209.39,-35.82c-0.21,-20.23 -6.34,-232.39 -21.79,-326.26l-0.21,0c-14.86,0 -116.08,5.6 -210.77,35.63zm234.34,292.23l0,0l0,0z" fill="#520556" id="svg_93"/>
   <path d="m539.36,311.26c7.69,-6.91 16.45,-9.61 19.57,-6.06c3.12,3.55 -0.58,12.03 -8.26,18.92c-7.69,6.9 -16.46,9.61 -19.58,6.06s0.58,-12.03 8.27,-18.92z" fill="#7F167F" id="svg_94"/>
   <path d="m627.78,282.69c1.46,-4.52 10.56,-5.58 20.34,-2.36c9.78,3.22 16.53,9.49 15.07,14.01c-1.46,4.52 -10.56,5.57 -20.34,2.35c-9.78,-3.22 -16.53,-9.48 -15.07,-14z" fill="#7F167F" id="svg_95"/>
   <path d="m535.26,333.53c-2.38,0 -4.16,-0.8 -5.55,-2.21c-1.98,-2.4 -2.18,-6.01 -0.19,-10.21c1.58,-3.8 4.75,-7.81 8.71,-11.4c3.97,-3.61 8.32,-6.21 12.29,-7.41c4.35,-1.4 7.92,-0.8 10.11,1.4c1.98,2.4 2.17,6.01 0.19,10.21c-1.58,3.8 -4.75,7.8 -8.72,11.4l0,0c-3.96,3.61 -8.32,6.2 -12.28,7.41c-1.78,0.6 -3.36,0.8 -4.56,0.8zm19.61,-28.23c-0.99,0 -2.17,0.21 -3.36,0.6c-3.36,1.01 -7.33,3.41 -10.89,6.62c-3.57,3.19 -6.34,6.8 -7.73,10.2c-1.19,2.8 -1.39,5.2 -0.4,6.21c0.99,1.19 3.36,1.19 6.14,0.4c3.38,-1.01 7.33,-3.41 10.9,-6.62l0,0c3.56,-3.19 6.33,-6.8 7.72,-10c1.19,-2.8 1.39,-5.2 0.4,-6.2c-0.59,-0.8 -1.58,-1.21 -2.77,-1.21z" fill="#520556" id="svg_96"/>
   <path d="m654.12,300.9c-3.77,0 -8.32,-1 -12.69,-2.61l0,0c-4.96,-2 -9.12,-4.61 -12.08,-7.6c-3.17,-3.4 -4.35,-6.8 -3.17,-9.6c1.19,-2.8 4.37,-4.61 8.91,-4.81c4.16,-0.19 9.12,0.8 14.07,2.61c4.94,2 9.1,4.61 12.08,7.6c3.17,3.4 4.35,6.81 3.17,9.61c-1.19,2.8 -4.37,4.59 -8.92,4.8c-0.39,0 -0.78,0 -1.37,0zm-17.63,-21.21c-0.4,0 -0.8,0 -1,0c-2.97,0.19 -5.15,1.19 -5.74,2.6c-0.59,1.4 0.4,3.61 2.58,5.81c2.57,2.6 6.33,5 10.7,6.8l0,0c4.35,1.8 8.91,2.61 12.48,2.4c2.97,-0.19 5.15,-1.19 5.74,-2.6c0.59,-1.4 -0.4,-3.61 -2.58,-5.81c-2.57,-2.6 -6.33,-5 -10.7,-6.8c-4.16,-1.61 -8.12,-2.4 -11.48,-2.4z" fill="#520556" id="svg_97"/>
   <path d="m654.12,300.7c-3.77,0 -8.32,-1 -12.69,-2.6l0,0c-4.96,-2 -9.12,-4.61 -11.88,-7.6c-3.17,-3.41 -4.37,-6.81 -3.17,-9.61c1.18,-2.8 4.16,-4.61 8.91,-4.8c4.16,-0.21 9.12,0.8 13.87,2.6c4.96,2.01 9.12,4.61 12.08,7.62c3.17,3.4 4.35,6.8 3.17,9.6s-4.16,4.61 -8.91,4.8c-0.4,0 -0.8,0 -1.39,0zm-17.63,-21.21c-0.4,0 -0.8,0 -1,0c-2.97,0.19 -5.15,1.21 -5.74,2.61c-0.59,1.4 0.4,3.59 2.58,5.8c2.57,2.61 6.33,5.01 10.7,6.81l0,0c4.35,1.79 8.91,2.6 12.48,2.4c2.97,-0.21 5.15,-1.21 5.74,-2.61c0.59,-1.4 -0.4,-3.61 -2.58,-5.8c-2.57,-2.61 -6.33,-5.01 -10.7,-6.81c-4.16,-1.4 -8.12,-2.4 -11.48,-2.4z" fill="#520556" id="svg_98"/>
   <path d="m634.31,420.59c-2.38,2.21 -6.74,4.01 -11.69,5.62c-16.05,5 -40.02,6.2 -41.01,-3.41c-0.4,-3.8 0.8,-8.01 3.17,-11.81l0,0c0.99,-1.8 2.38,-3.61 3.76,-5.2c5.55,-6.2 13.47,-11.01 21.39,-12.42c8.53,-1.4 16.45,2.21 21.6,7.41c6.14,6.41 8.32,15.01 2.77,19.81z" fill="#22213F" id="svg_99"/>
   <path d="m631.54,400.99c-18.22,8.01 -42.99,4.8 -42.99,4.8c5.55,-6.2 13.47,-11.01 21.39,-12.42c8.72,-1.4 16.64,2.21 21.6,7.62z" fill="#FFFFFF" id="svg_100"/>
   <path d="m622.63,426.21c-16.05,5 -40.02,6.2 -41.01,-3.41c-0.4,-3.8 0.8,-8.01 3.17,-11.81l0,0c0,0 25.55,-4.8 37.84,15.22z" fill="#EA2A21" id="svg_101"/>
   <path d="m598.45,431.8c-4.94,0 -9.31,-0.6 -12.67,-2c-4.56,-1.8 -5.74,-4.8 -5.95,-6.8c-1.39,-13.82 15.25,-28.83 29.92,-31.42c12.67,-2.21 23.77,5.99 27.93,14.8c2.77,6.01 1.98,11.81 -2.18,15.41c-6.33,5.4 -23.37,10 -37.05,10zm15.25,-36.82c-1.18,0 -2.17,0 -3.36,0.19l0,0c-14.27,2.4 -28.13,16.62 -26.94,27.43c0,0.6 0.19,2.4 3.76,3.8c11.09,4.4 38.43,-0.8 45.96,-7.41c4.16,-3.61 2.38,-9 1.19,-11.21c-2.98,-6.6 -11.3,-12.81 -20.61,-12.81zm-3.76,-1.61l0,0l0,0z" fill="#22213F" id="svg_102"/>
   <ellipse cx="758.56" cy="23" fill="#FFFFFF" id="svg_103" rx="27.43" ry="16.76" transform="matrix(0.139403 -1.21028 1.19783 0.140852 411.8 1290.34)"/>
   <path d="m532.03,376.01c1.3,-11.31 7.91,-19.82 14.76,-19.02c6.84,0.8 11.34,10.62 10.03,21.93c-1.3,11.31 -7.91,19.82 -14.76,19.02c-6.84,-0.8 -11.34,-10.62 -10.03,-21.93z" fill="#22213F" id="svg_104"/>
   <path d="m545.95,367.15c-0.19,2.21 -2.38,3.61 -4.75,3.41c-2.38,-0.21 -4.16,-2.21 -3.97,-4.41c0.21,-2.19 2.38,-3.59 4.76,-3.4c2.57,0.4 4.35,2.4 3.96,4.4z" fill="#FFFFFF" id="svg_105"/>
   <ellipse cx="603.09" cy="300.47" fill="#FFFFFF" id="svg_106" rx="16.76" ry="27.43" transform="matrix(1.2053 -0.0389901 0.038589 1.21783 -76.6207 11.1359)"/>
   <path d="m542.75,410.64c-0.57,0 -1.12,-0.02 -1.69,-0.1c-6.01,-0.71 -11.15,-5.12 -14.5,-12.44c-3.21,-7.02 -4.39,-15.95 -3.33,-25.15c1.05,-9.2 4.23,-17.62 8.95,-23.7c4.92,-6.35 10.94,-9.46 16.94,-8.75c12.06,1.43 20.07,18.28 17.84,37.59c-1.05,9.2 -4.23,17.62 -8.95,23.7c-4.46,5.76 -9.83,8.85 -15.27,8.85zm4.72,-66.58c-4.31,0 -8.68,2.61 -12.43,7.44c-4.31,5.57 -7.22,13.33 -8.21,21.87l0,0c-0.98,8.54 0.1,16.78 3.03,23.19c2.8,6.12 6.92,9.8 11.64,10.34c4.72,0.56 9.57,-2.06 13.67,-7.36c4.32,-5.57 7.24,-13.33 8.21,-21.87c2,-17.31 -4.58,-32.35 -14.65,-33.54c-0.42,-0.05 -0.83,-0.07 -1.25,-0.07zm-22.44,29.11l0.01,0l-0.01,0z" fill="#520556" id="svg_107"/>
   <path d="m662.52,388.78c-5.87,0 -11.43,-3.58 -15.7,-10.15c-4.2,-6.47 -6.66,-15.12 -6.96,-24.38s1.63,-18.06 5.4,-24.77c3.94,-7.01 9.44,-10.98 15.48,-11.17l0,0c6.05,-0.21 11.79,3.41 16.17,10.15c4.2,6.46 6.66,15.12 6.96,24.37c0.62,19.43 -8.75,35.57 -20.89,35.96c-0.16,0 -0.31,0 -0.47,0zm-1.65,-66.82c-4.74,0.15 -9.16,3.46 -12.46,9.32c-3.45,6.14 -5.2,14.26 -4.93,22.85c0.28,8.6 2.53,16.58 6.37,22.49c3.65,5.63 8.25,8.66 13.02,8.5c10.14,-0.33 17.94,-14.77 17.39,-32.18c-0.28,-8.59 -2.53,-16.58 -6.37,-22.49c-3.65,-5.63 -8.24,-8.63 -13.02,-8.49l0,0z" fill="#520556" id="svg_108"/>
   <path d="m646.01,355.94c0.42,-11.38 6.34,-20.38 13.23,-20.13c6.89,0.27 12.13,9.7 11.71,21.08c-0.42,11.38 -6.36,20.38 -13.24,20.13c-6.89,-0.27 -12.12,-9.7 -11.7,-21.08z" fill="#22213F" id="svg_109"/>
   <path d="m658.48,348.53c-1.19,1.8 -3.76,2.01 -5.75,0.61c-1.98,-1.4 -2.57,-4.01 -1.39,-5.6c1.19,-1.8 3.77,-2.01 5.75,-0.61c1.98,1.21 2.57,3.81 1.39,5.6z" fill="#FFFFFF" id="svg_110"/>
   <g id="svg_111">
    <path d="m392.45,535.25c9.25,-6.84 2.85,-14 -0.98,-21.6c-7.6,-16.01 -13.33,-37.43 -0.3,-51.98c9.04,-10.21 20.44,-18.03 32.34,-24.87c8.86,-4.89 17.79,-9.33 26.66,-13.6c2.58,-1.06 5.06,-3.18 6.31,-5.9c6.33,-12.71 -9.36,-22.97 -18.53,-15.69c-57.16,29.73 -101.12,61.1 -59.75,129.4c2.71,5.19 9.19,7.42 14.25,4.24z" fill="#721272" id="svg_112"/>
    <path d="m391.37,461.71c25.93,-26.65 51.95,-35.49 63.86,-42.32c0,0 9.29,-13.66 -7.07,-19.78c0,0 -58.97,37.03 -69.75,72.33c-6.1,20.02 13,41.89 13,41.89c-7.54,-16.21 -13.77,-37.99 -0.05,-52.12z" fill="#921E96" id="svg_113"/>
    <g id="svg_114">
     <g id="svg_115">
      <path d="m377.06,532.1c-14.97,-24.72 -19.58,-45.8 -14.45,-64.66c3.91,-13.46 12.78,-25.78 27.24,-37.61c13.9,-11.38 31.87,-21.29 47.45,-29.46c6.34,-3.47 12.93,-2.79 17.52,0.91c4.1,3.35 7.08,9.65 3.41,16.99c-1.48,2.84 -4.09,5.34 -7.21,6.85l-1.22,0.66c-8.38,4 -17.06,8.32 -25.25,13.01c-14.05,7.82 -24.2,15.61 -31.98,24.34c-12.61,13.85 -6.77,34.9 0.49,49.98c0.47,1.18 1.17,2.23 1.81,3.46c3.49,6.04 6.09,11.5 -3.04,17.96l0,0c-2.81,1.82 -4.43,4.52 -7.42,3.59c-0.19,-0.06 -0.19,-0.06 -0.37,-0.12c-3.18,-0.99 -5.76,-3.24 -6.99,-5.9zm14.83,-13.78c-0.64,-1.24 -1.29,-2.47 -1.93,-3.7c-7.6,-16.01 -13.86,-38.43 0.02,-53.75c8.09,-9.05 18.49,-16.99 32.84,-25.12c8.43,-4.81 17.05,-8.94 25.49,-13.13l1.23,-0.66c2.39,-1.11 4.38,-2.97 5.45,-5.12c2.24,-4.68 1.27,-9.53 -2.64,-12.82c-3.46,-2.73 -8.6,-2.49 -13.55,-0.5l0,0c-31.17,16.34 -65,35.98 -73.07,65.1c-4.98,17.67 -0.33,37.93 14.06,61.85l0,0c1.22,2.03 3.17,3.68 5.41,4.37c2.12,0.45 4.46,0.15 6.23,-0.95c6.27,-4.46 4.32,-8.78 0.45,-15.57z" fill="#520556" id="svg_116"/>
     </g>
    </g>
    <path d="m385.87,531.34c7.07,3.02 15.15,10.71 16.87,4.42c1.71,-6.29 -11.85,-15.47 -11.85,-15.47l-5.02,11.05z" fill="#721272" id="svg_117"/>
    <path d="m391.3,535.71l-1.06,-0.54c-0.88,-0.49 -1.16,-1.6 -0.68,-2.49c0.47,-0.89 1.58,-1.16 2.46,-0.68l1.06,0.54c2.38,1.57 6.84,4.5 7.97,2.69c0.63,-2.7 -2.6,-8.82 -6.64,-12.34c0,0 -2.74,-6.7 -2.07,-7.52c0.65,-0.83 3.21,3.38 3.85,3.98c2.77,2.32 9.78,11.2 8.3,16.74c-0.4,1.94 -1.48,2.84 -2.4,3.17c-1.17,0.48 -2.41,0.5 -3.9,0.04c-2.06,-0.65 -4.32,-1.97 -6.89,-3.59z" fill="#520556" id="svg_118"/>
    <path d="m380.32,532.12c0,0 1.4,12.81 5.2,16.47c3.74,3.85 10.83,0.06 7.24,-5.6s-1.93,-11.77 -1.93,-11.77l-10.5,0.9z" fill="#721272" id="svg_119"/>
    <path d="m374.96,524.21l0.94,-2.6l2.44,4.26l6.69,3.53c0,0 -1.93,2.29 -2.83,5.95c-0.33,1.75 -0.47,3.57 -0.3,5.69c0.49,3.05 -1.07,4.84 -2.86,5.31c-2.21,0.55 -4.96,-0.51 -5.95,-3.3c-1.72,-5.08 2.24,-18.73 1.87,-18.85z" fill="#721272" id="svg_120"/>
    <path d="m383.94,549.75c-4.29,-4.02 -5.38,-13.88 -5.47,-14.94c-0.08,-1.06 0.77,-1.83 1.63,-1.97c1.05,-0.09 1.81,0.78 1.95,1.64c0.24,2.56 1.46,9.97 4.31,12.72c1.4,1.46 3.5,1.29 4.58,0.39c1.1,-0.9 1.13,-2.34 0.17,-3.87c-3.98,-6.41 -2.15,-13.07 -2.1,-13.27c0.29,-0.94 1.27,-1.46 2.21,-1.17c0.93,0.29 1.45,1.28 1.16,2.22c-0.06,0.19 -1.42,5.35 1.72,10.47c2.5,3.87 1.15,6.97 -0.75,8.44c-1.64,1.35 -4.04,1.85 -6.28,1.15c-0.93,-0.29 -1.81,-0.77 -3.12,-1.8z" fill="#520556" id="svg_121"/>
    <path d="m370.99,544.18c-1.98,-5.57 1.57,-18.53 2.03,-20.04c0.29,-0.94 1.51,-1.61 2.45,-1.32l1.05,2.05c-1.37,5.15 -3.52,14.77 -2.27,18.06c0.53,1.61 2.03,2.08 3.14,1.8c1.29,-0.22 2.32,-1.55 2.07,-4.11c-0.1,-1.06 0.57,-1.89 1.44,-2.03c1.05,-0.09 1.87,0.58 2.01,1.45c0.47,4.5 -2,7.24 -4.65,7.86c-1.11,0.27 -2.28,0.11 -3.22,-0.18c-1.87,-0.57 -3.26,-2.05 -4.04,-3.53z" fill="#520556" id="svg_122"/>
   </g>
  </g>
 </g>
</svg>